# xmcd
#
# Track frame offsets:
#	150
#	12579
#	23850
#	37559
#	54130
#	69219
#	85758
#	99736
#	112606
#	126866
#	142196
#	156036
#	170967
#
# Disc length: 2438 seconds
#
# Revision: 0
# Processed by: cddbd v1.5.2PL0 Copyright (c) Steve Scherf et al.
# Submitted via: audiograbber 1.83.01
#
DISCID=9d09840d
DTITLE=VARIOS - BAILÃO SERTANEJO-2
DYEAR=2009
DGENRE=Country
TTITLE0=Mulher, Cerveja e Viola - Edson and Hudson
TTITLE1=Aqui Não - Cesar Menotti and Fabiano
TTITLE2=O Grito da Galera - Rionegro and Solimões
TTITLE3=Vamos Fazer Festa - Tchê Garotos
TTITLE4=Boto pra Remexer - Leonardo
TTITLE5=Ela Chorou de Amor - Gino and Geno
TTITLE6=Apaziguar - Bruno and Marrone
TTITLE7=Cai no Laço - Gian and Giovani
TTITLE8=A Gostosona - Teodoro and Sampaio
TTITLE9=Tchaca Tchaca na Butchaca - Cezar and Paulinho
TTITLE10=Nascemos pra Cantar (Shambala) - Chitãozinho and Xor
TTITLE11=Eu Me Amarrei - João Paulo and Daniel
TTITLE12=Estrada do Amor - Ataíde and Alexandre
EXTD=
EXTT0=
EXTT1=
EXTT2=
EXTT3=
EXTT4=
EXTT5=
EXTT6=
EXTT7=
EXTT8=
EXTT9=
EXTT10=
EXTT11=
EXTT12=
PLAYORDER=
